<svg xmlns="http://www.w3.org/2000/svg" xmlns:svg="http://www.w3.org/2000/svg" xmlns:xlink="http://www.w3.org/1999/xlink" version="1.0" height="659.7352895303206pt" width="903.05pt" viewBox="119.95 11.261440753936768 911.05 665.7352895303206" ><defs><style type="text/css">
            @font-face {
                font-family: 'noto_regular';
                src: url('https://app.creately.com/diagram/assets/fonts/noto/noto-regular.woff') format('woff'),
                     url('https://app.creately.com/diagram/assets/fonts/noto/noto-regular.woff2') format('woff2');
                font-weight: normal;
                font-style: normal;
            }
        p {
            margin: 0;
        }
        </style></defs><defs><style>
            span{ display: inline-block; }
        </style></defs><g id="1jk6mx4ftw"><g transform="translate(465 325)"><path d="M 0.5,0.5 L 230.56591796875,0.5 L 230.56591796875,255.5 L 0.5,255.5 Z" fill="rgb(255, 255, 255)" stroke="rgb(70, 70, 70)" stroke-width="1" stroke-linecap="round" stroke-linejoin="round"/><path d="M 0.5,0 L 230.56591796875,0 L 230.56591796875,20 L 0.5,20 Z" fill="rgb(215, 215, 215)" stroke="rgb(215, 215, 215)" stroke-width="1" stroke-linecap="round" stroke-linejoin="round"/><path d="M 0.5,10 L 230.56591796875,10 L 230.56591796875,27 L 0.5,27 Z" fill="rgb(215, 215, 215)" stroke="rgb(215, 215, 215)" stroke-width="1" stroke-linecap="round" stroke-linejoin="round"/><path d="M 0.5,246 L 230.56591796875,246 L 230.56591796875,250 L 0.5,250 Z" fill="rgb(215, 215, 215)" stroke="rgb(215, 215, 215)" stroke-width="1" stroke-linecap="round" stroke-linejoin="round"/><path d="M 0.5,246 L 230.56591796875,246 L 230.56591796875,256 L 0.5,256 Z" fill="rgb(215, 215, 215)" stroke="rgb(215, 215, 215)" stroke-width="1" stroke-linecap="round" stroke-linejoin="round"/><path d="M 0.5,0.5 L 230.56591796875,0.5 L 230.56591796875,255.5 L 0.5,255.5 Z" fill="none" stroke="rgb(70, 70, 70)" stroke-width="1" stroke-linecap="round" stroke-linejoin="round"/></g><g transform="translate(473, 328.0000941693479) rotate(0, 0, 0)" width="50" height="19"><text text-decoration="none" x="0" fill="#000000" font-weight="bold" font-size="10pt" font-family="Arial"  y="15">Books&#160;</text><text text-decoration="none" x="39" fill="#4b4b4b" font-size="10pt" font-family="noto_regular"  y="15"></text></g><g transform="translate(485, 357.001004473044) rotate(0, 0, 0)" width="46" height="19"><text text-decoration="none" x="0" fill="#000000" font-size="9pt" font-family="Arial"  y="15">bookID&#160;</text><text text-decoration="none" x="41" fill="#4b4b4b" font-size="10pt" font-family="noto_regular"  y="15"></text></g><g transform="translate(534, 357.001004473044) rotate(0, 0, 0)" width="24" height="19"><text text-decoration="none" x="0" fill="#000000" font-size="9pt" font-family="Arial"  y="15">INT&#160;</text><text text-decoration="none" x="22" fill="#4b4b4b" font-size="10pt" font-family="noto_regular"  y="15"></text></g><g transform="translate(563, 357.001004473044) rotate(0, 0, 0)" width="19" height="19"><text text-decoration="none" x="0" fill="#000000" font-size="9pt" font-family="Arial"  y="15">PK&#160;</text><text text-decoration="none" x="19" fill="#4b4b4b" font-size="10pt" font-family="noto_regular"  y="15"></text></g><g transform="translate(485, 378.0016636584792) rotate(0, 0, 0)" width="58" height="19"><text text-decoration="none" x="0" fill="#000000" font-size="9pt" font-family="Arial"  y="15">AuthorID&#160;</text><text text-decoration="none" x="51" fill="#4b4b4b" font-size="10pt" font-family="noto_regular"  y="15"></text></g><g transform="translate(542, 378.0016636584792) rotate(0, 0, 0)" width="24" height="19"><text text-decoration="none" x="0" fill="#000000" font-size="9pt" font-family="Arial"  y="15">INT&#160;</text><text text-decoration="none" x="22" fill="#4b4b4b" font-size="10pt" font-family="noto_regular"  y="15"></text></g><g transform="translate(571, 378.0016636584792) rotate(0, 0, 0)" width="19" height="19"><text text-decoration="none" x="0" fill="#000000" font-size="9pt" font-family="Arial"  y="15">FK&#160;</text><text text-decoration="none" x="18" fill="#4b4b4b" font-size="10pt" font-family="noto_regular"  y="15"></text></g><g transform="translate(485, 399.00232284391427) rotate(0, 0, 0)" width="72" height="19"><text text-decoration="none" x="0" fill="#000000" font-size="9pt" font-family="Arial"  y="15">PublisherID&#160;</text><text text-decoration="none" x="65" fill="#4b4b4b" font-size="10pt" font-family="noto_regular"  y="15"></text></g><g transform="translate(560, 399.00232284391427) rotate(0, 0, 0)" width="24" height="19"><text text-decoration="none" x="0" fill="#000000" font-size="9pt" font-family="Times"  y="15">INT&#160;</text><text text-decoration="none" x="22" fill="#4b4b4b" font-size="10pt" font-family="noto_regular"  y="15"></text></g><g transform="translate(589, 399.00232284391427) rotate(0, 0, 0)" width="19" height="19"><text text-decoration="none" x="0" fill="#000000" font-size="9pt" font-family="Arial"  y="15">FK&#160;</text><text text-decoration="none" x="18" fill="#4b4b4b" font-size="10pt" font-family="noto_regular"  y="15"></text></g><g transform="translate(485, 420.0029820293495) rotate(0, 0, 0)" width="29" height="19"><text text-decoration="none" x="0" fill="#000000" font-size="9pt" font-family="Arial"  y="15">Title&#160;</text><text text-decoration="none" x="26" fill="#4b4b4b" font-size="10pt" font-family="noto_regular"  y="15"></text></g><g transform="translate(485, 441.0036412147846) rotate(0, 0, 0)" width="33" height="19"><text text-decoration="none" x="0" fill="#000000" font-size="9pt" font-family="Arial"  y="15">ISBN&#160;</text><text text-decoration="none" x="29" fill="#4b4b4b" font-size="10pt" font-family="noto_regular"  y="15"></text></g><g transform="translate(485, 462.00430040021973) rotate(0, 0, 0)" width="40" height="19"><text text-decoration="none" x="0" fill="#000000" font-size="9pt" font-family="Arial"  y="15">Genre&#160;</text><text text-decoration="none" x="34" fill="#4b4b4b" font-size="10pt" font-family="noto_regular"  y="15"></text></g><g transform="translate(485, 483.0049595856549) rotate(0, 0, 0)" width="31" height="19"><text text-decoration="none" x="0" fill="#000000" font-size="9pt" font-family="Arial"  y="15">Type&#160;</text><text text-decoration="none" x="29" fill="#4b4b4b" font-size="10pt" font-family="noto_regular"  y="15"></text></g><g transform="translate(485, 504.00561877109) rotate(0, 0, 0)" width="98" height="19"><text text-decoration="none" x="0" fill="#000000" font-size="9pt" font-family="Arial"  y="15">Publication&#160;</text><text text-decoration="none" x="65" fill="#000000" font-size="9pt" font-family="Arial"  y="15">Year&#160;</text><text text-decoration="none" x="92" fill="#4b4b4b" font-size="10pt" font-family="noto_regular"  y="15"></text></g><g transform="translate(485, 525.0062779565251) rotate(0, 0, 0)" width="33" height="19"><text text-decoration="none" x="0" fill="#000000" font-size="9pt" font-family="Arial"  y="15">Price&#160;</text><text text-decoration="none" x="30" fill="#4b4b4b" font-size="10pt" font-family="noto_regular"  y="15"></text></g><g transform="translate(485, 546.0069371419603) rotate(0, 0, 0)" width="61" height="19"><text text-decoration="none" x="0" fill="#000000" font-size="9pt" font-family="Arial"  y="15">Condition&#160;</text><text text-decoration="none" x="56" fill="#4b4b4b" font-size="10pt" font-family="noto_regular"  y="15"></text></g></g><g id="9z4567m4o5"><g transform="translate(124.95 340)"><path d="M 0.5,0.5 L 182.5445098876953,0.5 L 182.5445098876953,129.5 L 0.5,129.5 Z" fill="rgb(255, 255, 255)" stroke="rgb(70, 70, 70)" stroke-width="1" stroke-linecap="round" stroke-linejoin="round"/><path d="M 0.5,0 L 182.5445098876953,0 L 182.5445098876953,20 L 0.5,20 Z" fill="rgb(215, 215, 215)" stroke="rgb(215, 215, 215)" stroke-width="1" stroke-linecap="round" stroke-linejoin="round"/><path d="M 0.5,10 L 182.5445098876953,10 L 182.5445098876953,27 L 0.5,27 Z" fill="rgb(215, 215, 215)" stroke="rgb(215, 215, 215)" stroke-width="1" stroke-linecap="round" stroke-linejoin="round"/><path d="M 0.5,120 L 182.5445098876953,120 L 182.5445098876953,124 L 0.5,124 Z" fill="rgb(215, 215, 215)" stroke="rgb(215, 215, 215)" stroke-width="1" stroke-linecap="round" stroke-linejoin="round"/><path d="M 0.5,120 L 182.5445098876953,120 L 182.5445098876953,130 L 0.5,130 Z" fill="rgb(215, 215, 215)" stroke="rgb(215, 215, 215)" stroke-width="1" stroke-linecap="round" stroke-linejoin="round"/><path d="M 0.5,0.5 L 182.5445098876953,0.5 L 182.5445098876953,129.5 L 0.5,129.5 Z" fill="none" stroke="rgb(70, 70, 70)" stroke-width="1" stroke-linecap="round" stroke-linejoin="round"/></g><g transform="translate(132.95, 343) rotate(0, 0, 0)" width="62" height="19"><text text-decoration="none" x="0" fill="#000000" font-weight="bold" font-size="10pt" font-family="Arial"  y="15">Authors&#160;</text><text text-decoration="none" x="49" fill="#4b4b4b" font-size="10pt" font-family="noto_regular"  y="15"></text></g><g transform="translate(144.95, 372) rotate(0, 0, 0)" width="58" height="19"><text text-decoration="none" x="0" fill="#000000" font-size="9pt" font-family="Arial"  y="15">AuthorID&#160;</text><text text-decoration="none" x="51" fill="#4b4b4b" font-size="10pt" font-family="noto_regular"  y="15"></text></g><g transform="translate(201.95, 372) rotate(0, 0, 0)" width="24" height="19"><text text-decoration="none" x="0" fill="#000000" font-size="9pt" font-family="Arial"  y="15">INT&#160;</text><text text-decoration="none" x="22" fill="#4b4b4b" font-size="10pt" font-family="noto_regular"  y="15"></text></g><g transform="translate(230.95, 372) rotate(0, 0, 0)" width="19" height="19"><text text-decoration="none" x="0" fill="#000000" font-size="9pt" font-family="Arial"  y="15">PK&#160;</text><text text-decoration="none" x="19" fill="#4b4b4b" font-size="10pt" font-family="noto_regular"  y="15"></text></g><g transform="translate(144.95, 393) rotate(0, 0, 0)" width="63" height="19"><text text-decoration="none" x="0" fill="#000000" font-size="9pt" font-family="Arial"  y="15">firstName&#160;</text><text text-decoration="none" x="57" fill="#4b4b4b" font-size="10pt" font-family="noto_regular"  y="15"></text></g><g transform="translate(144.95, 414) rotate(0, 0, 0)" width="60" height="19"><text text-decoration="none" x="0" fill="#000000" font-size="9pt" font-family="Arial"  y="15">lastName&#160;</text><text text-decoration="none" x="56" fill="#4b4b4b" font-size="10pt" font-family="noto_regular"  y="15"></text></g><g transform="translate(144.95, 435) rotate(0, 0, 0)" width="46" height="19"><text text-decoration="none" x="0" fill="#000000" font-size="9pt" font-family="Arial"  y="15">bookID&#160;</text><text text-decoration="none" x="41" fill="#4b4b4b" font-size="10pt" font-family="noto_regular"  y="15"></text></g><g transform="translate(193.95, 435) rotate(0, 0, 0)" width="24" height="19"><text text-decoration="none" x="0" fill="#000000" font-size="9pt" font-family="Arial"  y="15">INT&#160;</text><text text-decoration="none" x="22" fill="#4b4b4b" font-size="10pt" font-family="noto_regular"  y="15"></text></g><g transform="translate(222.95, 435) rotate(0, 0, 0)" width="19" height="19"><text text-decoration="none" x="0" fill="#000000" font-size="9pt" font-family="Arial"  y="15">FK&#160;</text><text text-decoration="none" x="18" fill="#4b4b4b" font-size="10pt" font-family="noto_regular"  y="15"></text></g></g><g id="23n43y6zkk"><g transform="translate(230 200)"><path d="M 0.5,0.5 L 157.5436553955078,0.5 L 157.5436553955078,108.5 L 0.5,108.5 Z" fill="rgb(255, 255, 255)" stroke="rgb(70, 70, 70)" stroke-width="1" stroke-linecap="round" stroke-linejoin="round"/><path d="M 0.5,0 L 157.5436553955078,0 L 157.5436553955078,20 L 0.5,20 Z" fill="rgb(215, 215, 215)" stroke="rgb(215, 215, 215)" stroke-width="1" stroke-linecap="round" stroke-linejoin="round"/><path d="M 0.5,10 L 157.5436553955078,10 L 157.5436553955078,27 L 0.5,27 Z" fill="rgb(215, 215, 215)" stroke="rgb(215, 215, 215)" stroke-width="1" stroke-linecap="round" stroke-linejoin="round"/><path d="M 0.5,99 L 157.5436553955078,99 L 157.5436553955078,103 L 0.5,103 Z" fill="rgb(215, 215, 215)" stroke="rgb(215, 215, 215)" stroke-width="1" stroke-linecap="round" stroke-linejoin="round"/><path d="M 0.5,99 L 157.5436553955078,99 L 157.5436553955078,109 L 0.5,109 Z" fill="rgb(215, 215, 215)" stroke="rgb(215, 215, 215)" stroke-width="1" stroke-linecap="round" stroke-linejoin="round"/><path d="M 0.5,0.5 L 157.5436553955078,0.5 L 157.5436553955078,108.5 L 0.5,108.5 Z" fill="none" stroke="rgb(70, 70, 70)" stroke-width="1" stroke-linecap="round" stroke-linejoin="round"/></g><g transform="translate(238, 202.99989439966208) rotate(0, 0, 0)" width="74" height="19"><text text-decoration="none" x="0" fill="#000000" font-weight="bold" font-size="10pt" font-family="Arial"  y="15">Inventory&#160;</text><text text-decoration="none" x="58" fill="#4b4b4b" font-size="10pt" font-family="noto_regular"  y="15"></text></g><g transform="translate(250, 231.99887359639553) rotate(0, 0, 0)" width="46" height="19"><text text-decoration="none" x="0" fill="#000000" font-size="9pt" font-family="Arial"  y="15">bookID&#160;</text><text text-decoration="none" x="41" fill="#4b4b4b" font-size="10pt" font-family="noto_regular"  y="15"></text></g><g transform="translate(299, 231.99887359639553) rotate(0, 0, 0)" width="24" height="19"><text text-decoration="none" x="0" fill="#000000" font-size="9pt" font-family="Arial"  y="15">INT&#160;</text><text text-decoration="none" x="22" fill="#4b4b4b" font-size="10pt" font-family="noto_regular"  y="15"></text></g><g transform="translate(328, 231.99887359639553) rotate(0, 0, 0)" width="19" height="19"><text text-decoration="none" x="0" fill="#000000" font-size="9pt" font-family="Arial"  y="15">PK&#160;</text><text text-decoration="none" x="19" fill="#4b4b4b" font-size="10pt" font-family="noto_regular"  y="15"></text></g><g transform="translate(250, 252.99813439403007) rotate(0, 0, 0)" width="97" height="19"><text text-decoration="none" x="0" fill="#000000" font-size="9pt" font-family="Arial"  y="15">stockLevelUsed&#160;</text><text text-decoration="none" x="86" fill="#4b4b4b" font-size="10pt" font-family="noto_regular"  y="15"></text></g><g transform="translate(250, 273.9973951916646) rotate(0, 0, 0)" width="93" height="19"><text text-decoration="none" x="0" fill="#000000" font-size="9pt" font-family="Arial"  y="15">stockLevelNew&#160;</text><text text-decoration="none" x="83" fill="#4b4b4b" font-size="10pt" font-family="noto_regular"  y="15"></text></g></g><g id="2pe9dvhjo2"><g transform="translate(185 565)"><path d="M 0.5,0.5 L 160.32745361328125,0.5 L 160.32745361328125,108.5 L 0.5,108.5 Z" fill="rgb(255, 255, 255)" stroke="rgb(70, 70, 70)" stroke-width="1" stroke-linecap="round" stroke-linejoin="round"/><path d="M 0.5,0 L 160.32745361328125,0 L 160.32745361328125,20 L 0.5,20 Z" fill="rgb(215, 215, 215)" stroke="rgb(215, 215, 215)" stroke-width="1" stroke-linecap="round" stroke-linejoin="round"/><path d="M 0.5,10 L 160.32745361328125,10 L 160.32745361328125,27 L 0.5,27 Z" fill="rgb(215, 215, 215)" stroke="rgb(215, 215, 215)" stroke-width="1" stroke-linecap="round" stroke-linejoin="round"/><path d="M 0.5,99 L 160.32745361328125,99 L 160.32745361328125,103 L 0.5,103 Z" fill="rgb(215, 215, 215)" stroke="rgb(215, 215, 215)" stroke-width="1" stroke-linecap="round" stroke-linejoin="round"/><path d="M 0.5,99 L 160.32745361328125,99 L 160.32745361328125,109 L 0.5,109 Z" fill="rgb(215, 215, 215)" stroke="rgb(215, 215, 215)" stroke-width="1" stroke-linecap="round" stroke-linejoin="round"/><path d="M 0.5,0.5 L 160.32745361328125,0.5 L 160.32745361328125,108.5 L 0.5,108.5 Z" fill="none" stroke="rgb(70, 70, 70)" stroke-width="1" stroke-linecap="round" stroke-linejoin="round"/></g><g transform="translate(192.99887863790022, 567.9999100078236) rotate(0, 0, 0)" width="81" height="19"><text text-decoration="none" x="0" fill="#000000" font-weight="bold" font-size="10pt" font-family="Arial"  y="15">Publishers&#160;</text><text text-decoration="none" x="64" fill="#4b4b4b" font-size="10pt" font-family="noto_regular"  y="15"></text></g><g transform="translate(204.99719659475053, 596.9990400834517) rotate(0, 0, 0)" width="73" height="19"><text text-decoration="none" x="0" fill="#000000" font-size="9pt" font-family="Arial"  y="15">publisherID&#160;</text><text text-decoration="none" x="64" fill="#4b4b4b" font-size="10pt" font-family="noto_regular"  y="15"></text></g><g transform="translate(278.98682399532754, 596.9990400834517) rotate(0, 0, 0)" width="24" height="19"><text text-decoration="none" x="0" fill="#000000" font-size="9pt" font-family="Arial"  y="15">INT&#160;</text><text text-decoration="none" x="22" fill="#4b4b4b" font-size="10pt" font-family="noto_regular"  y="15"></text></g><g transform="translate(307.98275905771584, 596.9990400834517) rotate(0, 0, 0)" width="19" height="19"><text text-decoration="none" x="0" fill="#000000" font-size="9pt" font-family="Arial"  y="15">PK&#160;</text><text text-decoration="none" x="19" fill="#4b4b4b" font-size="10pt" font-family="noto_regular"  y="15"></text></g><g transform="translate(204.99719659475053, 617.998410138217) rotate(0, 0, 0)" width="52" height="19"><text text-decoration="none" x="0" fill="#000000" font-size="9pt" font-family="Arial"  y="15">Country&#160;</text><text text-decoration="none" x="46" fill="#4b4b4b" font-size="10pt" font-family="noto_regular"  y="15"></text></g><g transform="translate(204.99719659475053, 638.9977801929821) rotate(0, 0, 0)" width="46" height="19"><text text-decoration="none" x="0" fill="#000000" font-size="9pt" font-family="Arial"  y="15">bookID&#160;</text><text text-decoration="none" x="41" fill="#4b4b4b" font-size="10pt" font-family="noto_regular"  y="15"></text></g><g transform="translate(253.99032825188937, 638.9977801929821) rotate(0, 0, 0)" width="24" height="19"><text text-decoration="none" x="0" fill="#000000" font-size="9pt" font-family="Arial"  y="15">INT&#160;</text><text text-decoration="none" x="22" fill="#4b4b4b" font-size="10pt" font-family="noto_regular"  y="15"></text></g><g transform="translate(282.98626331427766, 638.9977801929821) rotate(0, 0, 0)" width="19" height="19"><text text-decoration="none" x="0" fill="#000000" font-size="9pt" font-family="Arial"  y="15">FK&#160;</text><text text-decoration="none" x="18" fill="#4b4b4b" font-size="10pt" font-family="noto_regular"  y="15"></text></g></g><g id="k29oxuu11i"><g transform="translate(475 135)"><path d="M 0.5,0.5 L 207.4991455078125,0.5 L 207.4991455078125,129.5 L 0.5,129.5 Z" fill="rgb(255, 255, 255)" stroke="rgb(70, 70, 70)" stroke-width="1" stroke-linecap="round" stroke-linejoin="round"/><path d="M 0.5,0 L 207.4991455078125,0 L 207.4991455078125,20 L 0.5,20 Z" fill="rgb(215, 215, 215)" stroke="rgb(215, 215, 215)" stroke-width="1" stroke-linecap="round" stroke-linejoin="round"/><path d="M 0.5,10 L 207.4991455078125,10 L 207.4991455078125,27 L 0.5,27 Z" fill="rgb(215, 215, 215)" stroke="rgb(215, 215, 215)" stroke-width="1" stroke-linecap="round" stroke-linejoin="round"/><path d="M 0.5,120 L 207.4991455078125,120 L 207.4991455078125,124 L 0.5,124 Z" fill="rgb(215, 215, 215)" stroke="rgb(215, 215, 215)" stroke-width="1" stroke-linecap="round" stroke-linejoin="round"/><path d="M 0.5,120 L 207.4991455078125,120 L 207.4991455078125,130 L 0.5,130 Z" fill="rgb(215, 215, 215)" stroke="rgb(215, 215, 215)" stroke-width="1" stroke-linecap="round" stroke-linejoin="round"/><path d="M 0.5,0.5 L 207.4991455078125,0.5 L 207.4991455078125,129.5 L 0.5,129.5 Z" fill="none" stroke="rgb(70, 70, 70)" stroke-width="1" stroke-linecap="round" stroke-linejoin="round"/></g><g transform="translate(483, 138) rotate(0, 0, 0)" width="85" height="19"><text text-decoration="none" x="0" fill="#000000" font-weight="bold" font-size="10pt" font-family="Arial"  y="15">Order&#160;</text><text text-decoration="none" x="36" fill="#000000" font-weight="bold" font-size="10pt" font-family="Arial"  y="15">Item&#160;</text><text text-decoration="none" x="65" fill="#4b4b4b" font-size="10pt" font-family="noto_regular"  y="15"></text></g><g transform="translate(495, 167) rotate(0, 0, 0)" width="51" height="19"><text text-decoration="none" x="0" fill="#000000" font-size="9pt" font-family="Arial"  y="15">OrderID&#160;</text><text text-decoration="none" x="43" fill="#4b4b4b" font-size="10pt" font-family="noto_regular"  y="15"></text></g><g transform="translate(548, 167) rotate(0, 0, 0)" width="24" height="19"><text text-decoration="none" x="0" fill="#000000" font-size="9pt" font-family="Times"  y="15">INT&#160;</text><text text-decoration="none" x="22" fill="#4b4b4b" font-size="10pt" font-family="noto_regular"  y="15"></text></g><g transform="translate(577, 167) rotate(0, 0, 0)" width="19" height="19"><text text-decoration="none" x="0" fill="#000000" font-size="9pt" font-family="Arial"  y="15">PK&#160;</text><text text-decoration="none" x="19" fill="#4b4b4b" font-size="10pt" font-family="noto_regular"  y="15"></text></g><g transform="translate(495, 188) rotate(0, 0, 0)" width="46" height="19"><text text-decoration="none" x="0" fill="#000000" font-size="9pt" font-family="Arial"  y="15">bookID&#160;</text><text text-decoration="none" x="41" fill="#4b4b4b" font-size="10pt" font-family="noto_regular"  y="15"></text></g><g transform="translate(544, 188) rotate(0, 0, 0)" width="24" height="19"><text text-decoration="none" x="0" fill="#000000" font-size="9pt" font-family="Times"  y="15">INT&#160;</text><text text-decoration="none" x="22" fill="#4b4b4b" font-size="10pt" font-family="noto_regular"  y="15"></text></g><g transform="translate(573, 188) rotate(0, 0, 0)" width="19" height="19"><text text-decoration="none" x="0" fill="#000000" font-size="9pt" font-family="Arial"  y="15">FK&#160;</text><text text-decoration="none" x="18" fill="#4b4b4b" font-size="10pt" font-family="noto_regular"  y="15"></text></g><g transform="translate(495, 209) rotate(0, 0, 0)" width="56" height="19"><text text-decoration="none" x="0" fill="#000000" font-size="9pt" font-family="Arial"  y="15">Quantity&#160;</text><text text-decoration="none" x="49" fill="#4b4b4b" font-size="10pt" font-family="noto_regular"  y="15"></text></g><g transform="translate(495, 230) rotate(0, 0, 0)" width="33" height="19"><text text-decoration="none" x="0" fill="#000000" font-size="9pt" font-family="Arial"  y="15">Price&#160;</text><text text-decoration="none" x="30" fill="#4b4b4b" font-size="10pt" font-family="noto_regular"  y="15"></text></g></g><g id="1esglqr723"><g transform="translate(785 125)"><path d="M 0.5,0.5 L 187.49703979492188,0.5 L 187.49703979492188,171.5 L 0.5,171.5 Z" fill="rgb(255, 255, 255)" stroke="rgb(70, 70, 70)" stroke-width="1" stroke-linecap="round" stroke-linejoin="round"/><path d="M 0.5,0 L 187.49703979492188,0 L 187.49703979492188,20 L 0.5,20 Z" fill="rgb(215, 215, 215)" stroke="rgb(215, 215, 215)" stroke-width="1" stroke-linecap="round" stroke-linejoin="round"/><path d="M 0.5,10 L 187.49703979492188,10 L 187.49703979492188,27 L 0.5,27 Z" fill="rgb(215, 215, 215)" stroke="rgb(215, 215, 215)" stroke-width="1" stroke-linecap="round" stroke-linejoin="round"/><path d="M 0.5,162 L 187.49703979492188,162 L 187.49703979492188,166 L 0.5,166 Z" fill="rgb(215, 215, 215)" stroke="rgb(215, 215, 215)" stroke-width="1" stroke-linecap="round" stroke-linejoin="round"/><path d="M 0.5,162 L 187.49703979492188,162 L 187.49703979492188,172 L 0.5,172 Z" fill="rgb(215, 215, 215)" stroke="rgb(215, 215, 215)" stroke-width="1" stroke-linecap="round" stroke-linejoin="round"/><path d="M 0.5,0.5 L 187.49703979492188,0.5 L 187.49703979492188,171.5 L 0.5,171.5 Z" fill="none" stroke="rgb(70, 70, 70)" stroke-width="1" stroke-linecap="round" stroke-linejoin="round"/></g><g transform="translate(793, 128) rotate(0, 0, 0)" width="54" height="19"><text text-decoration="none" x="0" fill="#000000" font-weight="bold" font-size="10pt" font-family="Arial"  y="15">Orders&#160;</text><text text-decoration="none" x="43" fill="#4b4b4b" font-size="10pt" font-family="noto_regular"  y="15"></text></g><g transform="translate(805, 157) rotate(0, 0, 0)" width="49" height="19"><text text-decoration="none" x="0" fill="#000000" font-size="9pt" font-family="Arial"  y="15">orderID&#160;</text><text text-decoration="none" x="42" fill="#4b4b4b" font-size="10pt" font-family="noto_regular"  y="15"></text></g><g transform="translate(856, 157) rotate(0, 0, 0)" width="24" height="19"><text text-decoration="none" x="0" fill="#000000" font-size="9pt" font-family="Arial"  y="15">INT&#160;</text><text text-decoration="none" x="22" fill="#4b4b4b" font-size="10pt" font-family="noto_regular"  y="15"></text></g><g transform="translate(885, 157) rotate(0, 0, 0)" width="19" height="19"><text text-decoration="none" x="0" fill="#000000" font-size="9pt" font-family="Arial"  y="15">PK&#160;</text><text text-decoration="none" x="19" fill="#4b4b4b" font-size="10pt" font-family="noto_regular"  y="15"></text></g><g transform="translate(805, 178) rotate(0, 0, 0)" width="74" height="19"><text text-decoration="none" x="0" fill="#000000" font-size="9pt" font-family="Arial"  y="15">customerID&#160;</text><text text-decoration="none" x="65" fill="#4b4b4b" font-size="10pt" font-family="noto_regular"  y="15"></text></g><g transform="translate(879, 178) rotate(0, 0, 0)" width="24" height="19"><text text-decoration="none" x="0" fill="#000000" font-size="9pt" font-family="Arial"  y="15">INT&#160;</text><text text-decoration="none" x="22" fill="#4b4b4b" font-size="10pt" font-family="noto_regular"  y="15"></text></g><g transform="translate(908, 178) rotate(0, 0, 0)" width="19" height="19"><text text-decoration="none" x="0" fill="#000000" font-size="9pt" font-family="Arial"  y="15">FK&#160;</text><text text-decoration="none" x="18" fill="#4b4b4b" font-size="10pt" font-family="noto_regular"  y="15"></text></g><g transform="translate(805, 199) rotate(0, 0, 0)" width="64" height="19"><text text-decoration="none" x="0" fill="#000000" font-size="9pt" font-family="Arial"  y="15">orderDate&#160;</text><text text-decoration="none" x="56" fill="#4b4b4b" font-size="10pt" font-family="noto_regular"  y="15"></text></g><g transform="translate(805, 220) rotate(0, 0, 0)" width="55" height="19"><text text-decoration="none" x="0" fill="#000000" font-size="9pt" font-family="Arial"  y="15">Subtotal&#160;</text><text text-decoration="none" x="49" fill="#4b4b4b" font-size="10pt" font-family="noto_regular"  y="15"></text></g><g transform="translate(805, 241) rotate(0, 0, 0)" width="58" height="19"><text text-decoration="none" x="0" fill="#000000" font-size="9pt" font-family="Arial"  y="15">Shipping&#160;</text><text text-decoration="none" x="51" fill="#4b4b4b" font-size="10pt" font-family="noto_regular"  y="15"></text></g><g transform="translate(805, 262) rotate(0, 0, 0)" width="31" height="19"><text text-decoration="none" x="0" fill="#000000" font-size="9pt" font-family="Arial"  y="15">Total&#160;</text><text text-decoration="none" x="31" fill="#4b4b4b" font-size="10pt" font-family="noto_regular"  y="15"></text></g></g><g id="1uvhnbhdk3"><g transform="translate(795 360)"><path d="M 0.5,0.5 L 232.5,0.5 L 232.5,234.5 L 0.5,234.5 Z" fill="rgb(255, 255, 255)" stroke="rgb(70, 70, 70)" stroke-width="1" stroke-linecap="round" stroke-linejoin="round"/><path d="M 0.5,0 L 232.5,0 L 232.5,20 L 0.5,20 Z" fill="rgb(215, 215, 215)" stroke="rgb(215, 215, 215)" stroke-width="1" stroke-linecap="round" stroke-linejoin="round"/><path d="M 0.5,10 L 232.5,10 L 232.5,27 L 0.5,27 Z" fill="rgb(215, 215, 215)" stroke="rgb(215, 215, 215)" stroke-width="1" stroke-linecap="round" stroke-linejoin="round"/><path d="M 0.5,225 L 232.5,225 L 232.5,229 L 0.5,229 Z" fill="rgb(215, 215, 215)" stroke="rgb(215, 215, 215)" stroke-width="1" stroke-linecap="round" stroke-linejoin="round"/><path d="M 0.5,225 L 232.5,225 L 232.5,235 L 0.5,235 Z" fill="rgb(215, 215, 215)" stroke="rgb(215, 215, 215)" stroke-width="1" stroke-linecap="round" stroke-linejoin="round"/><path d="M 0.5,0.5 L 232.5,0.5 L 232.5,234.5 L 0.5,234.5 Z" fill="none" stroke="rgb(70, 70, 70)" stroke-width="1" stroke-linecap="round" stroke-linejoin="round"/></g><g transform="translate(803, 363) rotate(0, 0, 0)" width="84" height="19"><text text-decoration="none" x="0" fill="#000000" font-weight="bold" font-size="10pt" font-family="Arial"  y="15">Customers&#160;</text><text text-decoration="none" x="67" fill="#4b4b4b" font-size="10pt" font-family="noto_regular"  y="15"></text></g><g transform="translate(815, 392) rotate(0, 0, 0)" width="74" height="19"><text text-decoration="none" x="0" fill="#000000" font-size="9pt" font-family="Arial"  y="15">customerID&#160;</text><text text-decoration="none" x="65" fill="#4b4b4b" font-size="10pt" font-family="noto_regular"  y="15"></text></g><g transform="translate(889, 392) rotate(0, 0, 0)" width="24" height="19"><text text-decoration="none" x="0" fill="#000000" font-size="9pt" font-family="Arial"  y="15">INT&#160;</text><text text-decoration="none" x="22" fill="#4b4b4b" font-size="10pt" font-family="noto_regular"  y="15"></text></g><g transform="translate(918, 392) rotate(0, 0, 0)" width="19" height="19"><text text-decoration="none" x="0" fill="#000000" font-size="9pt" font-family="Arial"  y="15">PK&#160;</text><text text-decoration="none" x="19" fill="#4b4b4b" font-size="10pt" font-family="noto_regular"  y="15"></text></g><g transform="translate(815, 413) rotate(0, 0, 0)" width="63" height="19"><text text-decoration="none" x="0" fill="#000000" font-size="9pt" font-family="Arial"  y="15">firstName&#160;</text><text text-decoration="none" x="57" fill="#4b4b4b" font-size="10pt" font-family="noto_regular"  y="15"></text></g><g transform="translate(815, 434) rotate(0, 0, 0)" width="60" height="19"><text text-decoration="none" x="0" fill="#000000" font-size="9pt" font-family="Arial"  y="15">lastName&#160;</text><text text-decoration="none" x="56" fill="#4b4b4b" font-size="10pt" font-family="noto_regular"  y="15"></text></g><g transform="translate(815, 455) rotate(0, 0, 0)" width="88" height="19"><text text-decoration="none" x="0" fill="#000000" font-size="9pt" font-family="Arial"  y="15">streetNumber&#160;</text><text text-decoration="none" x="77" fill="#4b4b4b" font-size="10pt" font-family="noto_regular"  y="15"></text></g><g transform="translate(815, 476) rotate(0, 0, 0)" width="74" height="19"><text text-decoration="none" x="0" fill="#000000" font-size="9pt" font-family="Arial"  y="15">streetName&#160;</text><text text-decoration="none" x="66" fill="#4b4b4b" font-size="10pt" font-family="noto_regular"  y="15"></text></g><g transform="translate(815, 497) rotate(0, 0, 0)" width="70" height="19"><text text-decoration="none" x="0" fill="#000000" font-size="9pt" font-family="Arial"  y="15">postalCode&#160;</text><text text-decoration="none" x="65" fill="#4b4b4b" font-size="10pt" font-family="noto_regular"  y="15"></text></g><g transform="translate(815, 518) rotate(0, 0, 0)" width="55" height="19"><text text-decoration="none" x="0" fill="#000000" font-size="9pt" font-family="Arial"  y="15">Province&#160;</text><text text-decoration="none" x="50" fill="#4b4b4b" font-size="10pt" font-family="noto_regular"  y="15"></text></g><g transform="translate(815, 539) rotate(0, 0, 0)" width="52" height="19"><text text-decoration="none" x="0" fill="#000000" font-size="9pt" font-family="Arial"  y="15">Country&#160;</text><text text-decoration="none" x="46" fill="#4b4b4b" font-size="10pt" font-family="noto_regular"  y="15"></text></g><g transform="translate(815, 560) rotate(0, 0, 0)" width="91" height="19"><text text-decoration="none" x="0" fill="#000000" font-size="9pt" font-family="Arial"  y="15">phoneNumber&#160;</text><text text-decoration="none" x="81" fill="#4b4b4b" font-size="10pt" font-family="noto_regular"  y="15"></text></g></g><g id="7ib3z1684z"><g transform="translate(295 30)"><rect x="0" y="0" width="523.4477877616882" height="50.522881507873535" fill="rgba(255,255,255,0.01)" stroke="rgba(255,255,255,0.01)" stroke-width="NaN" stroke-linecap="round" stroke-linejoin="round"/></g><g transform="translate(352.2238938808441, 14.261440753936768) rotate(0, 204.5, 41)" width="409" height="82"><text text-decoration="none" x="42.5" fill="rgb(0, 0, 0)" font-weight="bold" font-size="27pt" font-family="Arial"  y="33">Bookstore&#160;</text><text text-decoration="none" x="216.5" fill="rgb(0, 0, 0)" font-weight="bold" font-size="27pt" font-family="Arial"  y="33">Database&#160;</text><text text-decoration="none" x="139.5" fill="rgb(0, 0, 0)" font-weight="bold" font-size="27pt" font-family="Arial"  y="75">Schema</text><text text-decoration="none" x="269.5" fill="#4b4b4b" font-size="10pt" font-family="noto_regular"  y="75"></text></g></g><g id="1xzmuxw2iz"><g transform="translate(560 255)"><linearGradient id="a16a0" x1="16.586140441894532" y1="-38.072396423339846" x2="16.586140441894532" y2="76.14479284667969" gradientUnits="userSpaceOnUse"><stop offset="0%" stop-color="rgba(255,255,255,1)"/><stop offset="100%" stop-color="rgba(215,215,215,1)"/></linearGradient><path d="M 0,18.09397139115767 L 16.586140441894532,0 L 33.172280883789064,18.09397139115767 L 25.33155994762074,18.09397139115767 L 25.33155994762074,76.14479284667969 L 7.840720936168324,76.14479284667969 L 7.840720936168324,18.09397139115767 L 0,18.09397139115767 Z" fill="url(#a16a0)" stroke="#626262" stroke-width="1.5" stroke-linecap="round" stroke-linejoin="round"/></g></g><g id="4ivfyi7swd"><g transform="translate(680.05 200.05)"><linearGradient id="f8da8" x1="58.06166239929199" y1="-17.85609649658203" x2="58.06166239929199" y2="35.71219299316406" gradientUnits="userSpaceOnUse"><stop offset="0%" stop-color="rgba(255,255,255,1)"/><stop offset="100%" stop-color="rgba(215,215,215,1)"/></linearGradient><path d="M 116.12332479858398,17.85609649658203 L 96.64394680231267,0 L 96.64394680231267,8.441063798384233 L 0,8.441063798384233 L 0,27.271129194779824 L 96.64394680231267,27.271129194779824 L 96.64394680231267,35.71219299316406 L 116.12332479858398,17.85609649658203 Z" fill="url(#f8da8)" stroke="#626262" stroke-width="1.5" stroke-linecap="round" stroke-linejoin="round"/></g></g><g id="13mm6gqupe"><g transform="translate(885 285.05)"><linearGradient id="d7a9e" x1="16.41098937988281" y1="-43.072132141113286" x2="16.41098937988281" y2="86.14426428222657" gradientUnits="userSpaceOnUse"><stop offset="0%" stop-color="rgba(255,255,255,1)"/><stop offset="100%" stop-color="rgba(215,215,215,1)"/></linearGradient><path d="M 13,0 L 13,56.14426428222657 L 0,56.14426428222657 L 16.41098937988281,86.14426428222657 L 32.82197875976562,56.14426428222657 L 19.82197875976562,56.14426428222657 L 19.82197875976562,0 L 13,0 Z" fill="url(#d7a9e)" stroke="#626262" stroke-width="1.5" stroke-linecap="round" stroke-linejoin="round"/></g></g><g id="21llat1c6u"><g transform="translate(365.05 272.1972910392088) rotate(-57.41208350966743)"><linearGradient id="0816a" x1="13.187340069870714" y1="-59.391697725967454" x2="13.187340069870714" y2="118.78339545193491" gradientUnits="userSpaceOnUse"><stop offset="0%" stop-color="rgba(255,255,255,1)"/><stop offset="100%" stop-color="rgba(215,215,215,1)"/></linearGradient><path d="M 0,14.386189167131688 L 13.187340069870714,0 L 26.37468013974143,14.386189167131688 L 20.140664833984363,14.386189167131688 L 20.140664833984363,118.78339545193491 L 6.234015305757065,118.78339545193491 L 6.234015305757065,14.386189167131688 L 0,14.386189167131688 Z" fill="url(#0816a)" stroke="#626262" stroke-width="1.5" stroke-linecap="round" stroke-linejoin="round"/></g></g><g id="2575pfjw6m"><g transform="translate(290.85 375)"><linearGradient id="a7f9e" x1="86.93490399169923" y1="-17.780715026855468" x2="86.93490399169923" y2="35.561430053710936" gradientUnits="userSpaceOnUse"><stop offset="0%" stop-color="rgba(255,255,255,1)"/><stop offset="100%" stop-color="rgba(215,215,215,1)"/></linearGradient><path d="M 0,17.780715026855468 L 19.39714366566051,0 L 19.39714366566051,8.405428921786221 L 173.86980798339846,8.405428921786221 L 173.86980798339846,27.156001131924715 L 19.39714366566051,27.156001131924715 L 19.39714366566051,35.561430053710936 L 0,17.780715026855468 Z" fill="url(#a7f9e)" stroke="#626262" stroke-width="1.5" stroke-linecap="round" stroke-linejoin="round"/></g></g><g id="6vmwneiwdu"><g transform="translate(469.9497415697317 518.6) rotate(58.69578444126012)"><linearGradient id="31b11" x1="15.651917971952638" y1="-80.3286204988501" x2="15.651917971952638" y2="160.6572409977002" gradientUnits="userSpaceOnUse"><stop offset="0%" stop-color="rgba(255,255,255,1)"/><stop offset="100%" stop-color="rgba(215,215,215,1)"/></linearGradient><path d="M 13,0 L 13,130.6572409977002 L 0,130.6572409977002 L 15.651917971952638,160.6572409977002 L 31.303835943905277,130.6572409977002 L 18.303835943905277,130.6572409977002 L 18.303835943905277,0 L 13,0 Z" fill="url(#31b11)" stroke="#626262" stroke-width="1.5" stroke-linecap="round" stroke-linejoin="round"/></g></g></svg>